<svg width="34" height="34" viewBox="0 0 34 34" fill="none" xmlns="http://www.w3.org/2000/svg">
<circle cx="17" cy="17" r="17" fill="#FF685B" fill-opacity="0.06"/>
<path d="M10.75 14.1266C10.75 15.7891 12.0042 17.0433 13.6667 17.0433C15.3292 17.0433 16.5834 15.7891 16.5834 14.1266C16.5834 12.4641 15.3292 11.21 13.6667 11.21C12.0042 11.21 10.75 12.4641 10.75 14.1266ZM22.8334 13.6666H21.1667V16.1666H18.6667V17.8333H21.1667V20.3333H22.8334V17.8333H25.3334V16.1666H22.8334V13.6666ZM10.3334 22.8333H18.6667V22C18.6667 19.7025 16.7975 17.8333 14.5 17.8333H12.8334C10.5359 17.8333 8.66669 19.7025 8.66669 22V22.8333H10.3334Z" fill="#FC3E03"/>
</svg>
