<svg width="25" height="25" viewBox="0 0 25 25" fill="none" xmlns="http://www.w3.org/2000/svg">
<path d="M19.7333 11.575C19.2781 7.98962 16.2083 5.20837 12.5 5.20837C9.62916 5.20837 7.13541 6.88546 5.99687 9.53025C3.75937 10.2 2.08333 12.3125 2.08333 14.5834C2.08333 17.3511 4.25937 19.599 6.98749 19.7615V19.7917H18.7396V19.7886L18.75 19.7917C21.0479 19.7917 22.9167 17.923 22.9167 15.625C22.9154 14.6912 22.6012 13.7847 22.0241 13.0506C21.447 12.3164 20.6404 11.7969 19.7333 11.575ZM8.33333 12.5H11.4583V9.37504H13.5417V12.5H16.6667L12.5 17.7084L8.33333 12.5Z" fill="black"/>
</svg>
