<svg width="14" height="14" viewBox="0 0 14 14" fill="none" xmlns="http://www.w3.org/2000/svg">
<g clip-path="url(#clip0_1874_233)">
<path d="M7 14C10.6512 14 13.6111 11.0401 13.6111 7.38888C13.6111 3.73767 10.6512 0.777771 7 0.777771C3.34878 0.777771 0.388885 3.73767 0.388885 7.38888C0.388885 11.0401 3.34878 14 7 14Z" fill="#F4900C"/>
<path d="M7 13.2222C10.6512 13.2222 13.6111 10.2623 13.6111 6.61111C13.6111 2.9599 10.6512 0 7 0C3.34878 0 0.388885 2.9599 0.388885 6.61111C0.388885 10.2623 3.34878 13.2222 7 13.2222Z" fill="#FFCC4D"/>
<path d="M6.99999 12.4444C10.0069 12.4444 12.4444 10.0069 12.4444 6.99999C12.4444 3.9931 10.0069 1.55554 6.99999 1.55554C3.9931 1.55554 1.55554 3.9931 1.55554 6.99999C1.55554 10.0069 3.9931 12.4444 6.99999 12.4444Z" fill="#FFE8B6"/>
<path d="M6.99999 12.0556C10.0069 12.0556 12.4444 9.61802 12.4444 6.61113C12.4444 3.60425 10.0069 1.16669 6.99999 1.16669C3.9931 1.16669 1.55554 3.60425 1.55554 6.61113C1.55554 9.61802 3.9931 12.0556 6.99999 12.0556Z" fill="#FFAC33"/>
<path d="M3.71118 4.22176C3.71118 4.00981 3.91924 3.92503 3.91924 3.92503L6.9829 2.48615L10.0757 3.92503C10.0757 3.92503 10.2888 3.97248 10.2888 4.22331V4.47259H3.71118V4.22176Z" fill="#FFE8B6"/>
<path d="M10.0835 4.99181C10.0835 4.76469 9.88711 4.58075 9.64522 4.58075H4.32794C4.08567 4.58075 3.91689 4.76469 3.91689 4.99181C3.91689 5.14619 3.99622 5.27919 4.12261 5.34958V5.60858H4.94472V5.40286H5.76683V5.60858H6.58894V5.40286H7.41105V5.60858H8.23316V5.40286H9.05528V5.60858H9.87778V5.33908C10.0011 5.26597 10.0835 5.13803 10.0835 4.99181ZM10.6999 9.33336C10.6999 9.41515 10.6674 9.49359 10.6096 9.55143C10.5517 9.60926 10.4733 9.64175 10.3915 9.64175H3.6085C3.52671 9.64175 3.44827 9.60926 3.39043 9.55143C3.3326 9.49359 3.30011 9.41515 3.30011 9.33336C3.30011 9.25157 3.3326 9.17313 3.39043 9.1153C3.44827 9.05746 3.52671 9.02497 3.6085 9.02497H10.3919C10.5618 9.02497 10.6999 9.16303 10.6999 9.33336Z" fill="#F4900C"/>
<path d="M10.2888 4.74442C10.2888 4.79898 10.2672 4.85131 10.2286 4.88989C10.19 4.92847 10.1377 4.95014 10.0831 4.95014H3.91651C3.86413 4.94692 3.81496 4.92384 3.77901 4.88562C3.74307 4.84739 3.72305 4.79689 3.72305 4.74442C3.72305 4.69195 3.74307 4.64145 3.77901 4.60322C3.81496 4.56499 3.86413 4.54192 3.91651 4.5387L10.0831 4.53986C10.1101 4.53976 10.1368 4.54497 10.1617 4.5552C10.1866 4.56543 10.2093 4.58048 10.2284 4.59948C10.2475 4.61848 10.2627 4.64106 10.2731 4.66593C10.2834 4.6908 10.2888 4.71747 10.2888 4.74442ZM4.73901 4.9832H9.2614V5.44442H4.73901V4.9832Z" fill="#F4900C"/>
<path d="M4.94433 8.10018C4.94433 8.32729 4.82144 8.51124 4.67016 8.51124H4.39599C4.24472 8.51124 4.12183 8.32729 4.12183 8.10018V4.98363C4.12183 4.75651 4.24472 4.57257 4.39599 4.57257H4.67016C4.82144 4.57257 4.94433 4.75651 4.94433 4.98363V8.10018ZM9.87777 8.10018C9.87777 8.32729 9.75527 8.51124 9.60361 8.51124H9.32944C9.17816 8.51124 9.05527 8.32729 9.05527 8.10018V4.98363C9.05527 4.75651 9.17777 4.57257 9.32944 4.57257H9.60361C9.75488 4.57257 9.87777 4.75651 9.87777 4.98363V8.10018ZM6.58894 8.10018C6.58894 8.32729 6.46605 8.51124 6.31477 8.51124H6.0406C5.88933 8.51124 5.76644 8.32729 5.76644 8.10018V4.98363C5.76644 4.75651 5.88933 4.57257 6.0406 4.57257H6.31477C6.46605 4.57257 6.58894 4.75651 6.58894 4.98363V8.10018ZM8.23316 8.10018C8.23316 8.32729 8.11027 8.51124 7.95899 8.51124H7.68522C7.53394 8.51124 7.41105 8.32729 7.41105 8.10018V4.98363C7.41105 4.75651 7.53394 4.57257 7.68522 4.57257H7.95899C8.11027 4.57257 8.23316 4.75651 8.23316 4.98363V8.10018Z" fill="#FFD983"/>
<path d="M10.0835 8.30553C10.0835 8.53264 9.89957 8.71658 9.67246 8.71658H4.32796C4.21894 8.71658 4.11438 8.67328 4.0373 8.59619C3.96021 8.5191 3.9169 8.41455 3.9169 8.30553C3.9169 8.19651 3.96021 8.09195 4.0373 8.01487C4.11438 7.93778 4.21894 7.89447 4.32796 7.89447H9.67246C9.89918 7.89447 10.0835 8.07842 10.0835 8.30553Z" fill="#FFCC4D"/>
<path d="M10.4945 8.71654C10.4945 8.94365 10.3106 9.12759 10.0835 9.12759H3.91649C3.80747 9.12759 3.70292 9.08428 3.62583 9.0072C3.54874 8.93011 3.50543 8.82556 3.50543 8.71654C3.50543 8.60752 3.54874 8.50296 3.62583 8.42588C3.70292 8.34879 3.80747 8.30548 3.91649 8.30548H10.0831C10.3102 8.30548 10.4945 8.48943 10.4945 8.71654Z" fill="#FFD983"/>
<path d="M10.6999 9.02494C10.6999 9.10673 10.6674 9.18517 10.6096 9.24301C10.5517 9.30084 10.4733 9.33333 10.3915 9.33333H3.6085C3.568 9.33333 3.5279 9.32535 3.49048 9.30986C3.45307 9.29436 3.41907 9.27164 3.39043 9.24301C3.3618 9.21437 3.33908 9.18037 3.32358 9.14296C3.30809 9.10554 3.30011 9.06544 3.30011 9.02494C3.30011 8.98444 3.30809 8.94434 3.32358 8.90693C3.33908 8.86951 3.3618 8.83551 3.39043 8.80688C3.41907 8.77824 3.45307 8.75553 3.49048 8.74003C3.5279 8.72453 3.568 8.71655 3.6085 8.71655H10.3919C10.5618 8.71655 10.6999 8.85461 10.6999 9.02494Z" fill="#FFD983"/>
<path d="M10.0835 4.77788C10.0835 4.55077 9.88712 4.36682 9.64523 4.36682H4.32796C4.08568 4.36682 3.9169 4.55077 3.9169 4.77788C3.9169 4.93227 3.99623 5.06527 4.12262 5.13565V5.39465H4.94473V5.18893H5.76685V5.39465H6.58896V5.18893H7.41107V5.39465H8.23318V5.18893H9.05529V5.39465H9.87779V5.12515C10.0011 5.05204 10.0835 4.9241 10.0835 4.77788Z" fill="#FFCC4D"/>
<path d="M3.71118 4.45784C3.71118 4.2459 3.91924 4.16112 3.91924 4.16112L6.9829 2.72223L10.0757 4.16112C10.0757 4.16112 10.2888 4.20856 10.2888 4.4594V4.57256H3.71118V4.45784Z" fill="#FFD983"/>
<path d="M6.99999 3.24451C6.99999 3.24451 4.8786 4.24434 4.66704 4.33456C4.4551 4.4244 4.52587 4.57217 4.66743 4.57217H9.32243C9.54099 4.57217 9.48926 4.40534 9.31582 4.31512C9.14237 4.22528 6.99999 3.24451 6.99999 3.24451Z" fill="#FFAC33"/>
<path d="M10.2888 4.57218C10.2888 4.62674 10.2672 4.67906 10.2286 4.71765C10.19 4.75623 10.1377 4.7779 10.0831 4.7779H3.91651C3.86413 4.77468 3.81496 4.7516 3.77901 4.71337C3.74307 4.67515 3.72305 4.62465 3.72305 4.57218C3.72305 4.5197 3.74307 4.46921 3.77901 4.43098C3.81496 4.39275 3.86413 4.36968 3.91651 4.36646L10.0831 4.36762C10.1101 4.36752 10.1368 4.37273 10.1617 4.38296C10.1866 4.39319 10.2093 4.40824 10.2284 4.42724C10.2475 4.44624 10.2627 4.46882 10.2731 4.49369C10.2834 4.51856 10.2888 4.54523 10.2888 4.57218Z" fill="#FFD983"/>
</g>
<defs>
<clipPath id="clip0_1874_233">
<rect width="14" height="14" fill="white"/>
</clipPath>
</defs>
</svg>
