<svg width="25" height="25" viewBox="0 0 25 25" fill="none" xmlns="http://www.w3.org/2000/svg">
<circle cx="12.5" cy="12.5" r="12.5" fill="#FC3E03"/>
<g clip-path="url(#clip0_11_173)">
<path d="M11.4584 18.75C11.4584 18.75 10.4167 18.75 10.4167 17.7083C10.4167 16.6667 11.4584 13.5417 15.625 13.5417C19.7917 13.5417 20.8334 16.6667 20.8334 17.7083C20.8334 18.75 19.7917 18.75 19.7917 18.75H11.4584ZM15.625 12.5C16.4538 12.5 17.2487 12.1708 17.8347 11.5847C18.4208 10.9987 18.75 10.2038 18.75 9.375C18.75 8.5462 18.4208 7.75134 17.8347 7.16529C17.2487 6.57924 16.4538 6.25 15.625 6.25C14.7962 6.25 14.0014 6.57924 13.4153 7.16529C12.8293 7.75134 12.5 8.5462 12.5 9.375C12.5 10.2038 12.8293 10.9987 13.4153 11.5847C14.0014 12.1708 14.7962 12.5 15.625 12.5Z" fill="white"/>
<path fill-rule="evenodd" clip-rule="evenodd" d="M9.60002 18.75C9.4456 18.4248 9.36859 18.0682 9.37502 17.7083C9.37502 16.2969 10.0834 14.8437 11.3917 13.8333C10.7387 13.6321 10.0583 13.5337 9.37502 13.5416C5.20835 13.5416 4.16669 16.6666 4.16669 17.7083C4.16669 18.75 5.20835 18.75 5.20835 18.75H9.60002Z" fill="white"/>
<path d="M8.85417 12.5C9.54483 12.5 10.2072 12.2257 10.6956 11.7373C11.184 11.2489 11.4583 10.5865 11.4583 9.89585C11.4583 9.20519 11.184 8.54281 10.6956 8.05443C10.2072 7.56605 9.54483 7.29169 8.85417 7.29169C8.1635 7.29169 7.50112 7.56605 7.01274 8.05443C6.52437 8.54281 6.25 9.20519 6.25 9.89585C6.25 10.5865 6.52437 11.2489 7.01274 11.7373C7.50112 12.2257 8.1635 12.5 8.85417 12.5Z" fill="white"/>
</g>
<defs>
<clipPath id="clip0_11_173">
<rect width="16.6667" height="16.6667" fill="white" transform="translate(4.16669 4.16669)"/>
</clipPath>
</defs>
</svg>
