<svg width="25" height="25" viewBox="0 0 25 25" fill="none" xmlns="http://www.w3.org/2000/svg">
<path d="M17.1817 3.73938C15.1663 3.73938 13.4442 5.17592 12.4981 6.1663C11.5519 5.17592 9.83364 3.73938 7.81922 3.73938C4.3471 3.73938 1.92307 6.15957 1.92307 9.624C1.92307 13.4413 4.93364 15.9086 7.84614 18.2951C9.22114 19.423 10.6442 20.5884 11.7356 21.8807C11.9192 22.0971 12.1885 22.2221 12.4711 22.2221H12.5269C12.8106 22.2221 13.0788 22.0961 13.2615 21.8807C14.3548 20.5884 15.7769 19.4221 17.1529 18.2951C20.0644 15.9096 23.0769 13.4423 23.0769 9.624C23.0769 6.15957 20.6529 3.73938 17.1817 3.73938Z" fill="#FC3E03"/>
</svg>
