<svg width="34" height="34" viewBox="0 0 34 34" fill="none" xmlns="http://www.w3.org/2000/svg">
<circle cx="17" cy="17" r="17" fill="#E5E5E5" fill-opacity="0.7"/>
<path d="M13.6667 17.0433C15.3292 17.0433 16.5834 15.7891 16.5834 14.1266C16.5834 12.4641 15.3292 11.21 13.6667 11.21C12.0042 11.21 10.75 12.4641 10.75 14.1266C10.75 15.7891 12.0042 17.0433 13.6667 17.0433ZM14.5 17.8333H12.8334C10.5359 17.8333 8.66669 19.7025 8.66669 22V22.8333H18.6667V22C18.6667 19.7025 16.7975 17.8333 14.5 17.8333ZM23.9117 13.91L20.3284 17.4866L19.2517 16.41L18.0734 17.5883L20.3284 19.8416L25.0884 15.09L23.9117 13.91Z" fill="black"/>
<path d="M13.6667 17.0433C15.3292 17.0433 16.5834 15.7891 16.5834 14.1266C16.5834 12.4641 15.3292 11.21 13.6667 11.21C12.0042 11.21 10.75 12.4641 10.75 14.1266C10.75 15.7891 12.0042 17.0433 13.6667 17.0433ZM14.5 17.8333H12.8334C10.5359 17.8333 8.66669 19.7025 8.66669 22V22.8333H18.6667V22C18.6667 19.7025 16.7975 17.8333 14.5 17.8333ZM23.9117 13.91L20.3284 17.4866L19.2517 16.41L18.0734 17.5883L20.3284 19.8416L25.0884 15.09L23.9117 13.91Z" fill="#ADACAC"/>
</svg>
