<svg width="43" height="18" viewBox="0 0 43 18" fill="none" xmlns="http://www.w3.org/2000/svg">
<path d="M30.2109 13.834V15H25.9277V13.834H30.2109ZM26.3379 6.46875V15H24.8672V6.46875H26.3379ZM32.5078 13.8809L34.0605 8.66016H35.5254L33.3223 15H32.4082L32.5078 13.8809ZM31.3184 8.66016L32.9004 13.9043L32.9766 15H32.0625L29.8477 8.66016H31.3184ZM40.1719 6.43945V15H38.7598V8.11523L36.668 8.82422V7.6582L40.002 6.43945H40.1719Z" fill="#FF685B"/>
<path d="M1.99999 6.665C1.99998 6.52775 1.95934 6.39358 1.8832 6.2794C1.80705 6.16522 1.6988 6.07614 1.57209 6.02339C1.44539 5.97064 1.3059 5.95659 1.17123 5.98301C1.03655 6.00942 0.912705 6.07512 0.815311 6.17182C0.717917 6.26851 0.651334 6.39188 0.623955 6.52637C0.596576 6.66085 0.609628 6.80044 0.661465 6.92751C0.713302 7.05459 0.801604 7.16348 0.915236 7.24044C1.02887 7.31741 1.16274 7.35901 1.29999 7.36C1.39167 7.36066 1.48259 7.34317 1.56749 7.30853C1.65239 7.2739 1.72959 7.22281 1.79466 7.15821C1.85973 7.09361 1.91137 7.01677 1.94661 6.93212C1.98185 6.84747 1.99999 6.75669 1.99999 6.665ZM15.905 7.92C15.1161 8.06719 14.3475 8.30719 13.615 8.635C13.0048 8.93226 12.4224 9.28367 11.875 9.685C11.5403 9.24663 11.2474 8.77792 11 8.285C10.4239 7.04585 9.95552 5.75944 9.59999 4.44C9.57069 4.33091 9.50532 4.23497 9.41452 4.16778C9.32373 4.1006 9.21287 4.06613 9.09999 4.07C8.9871 4.06613 8.87624 4.1006 8.78545 4.16778C8.69466 4.23497 8.62929 4.33091 8.59999 4.44C8.24671 5.76015 7.77825 7.04676 7.19999 8.285C6.95285 8.77915 6.65812 9.24804 6.31999 9.685C5.77255 9.28367 5.19022 8.93226 4.57999 8.635C3.84701 8.30853 3.0785 8.06858 2.28999 7.92C2.19673 7.90161 2.10016 7.91019 2.01161 7.94473C1.92305 7.97926 1.84617 8.03833 1.78999 8.115C1.73435 8.18964 1.70067 8.27833 1.69272 8.37109C1.68477 8.46384 1.70287 8.55697 1.74499 8.64C2.80054 10.8374 3.52989 13.177 3.90999 15.585C3.93023 15.7024 3.99171 15.8087 4.08338 15.8848C4.17505 15.9609 4.29087 16.0017 4.40999 16H13.81C13.9291 16.0017 14.0449 15.9609 14.1366 15.8848C14.2283 15.8087 14.2897 15.7024 14.31 15.585C14.6791 13.1789 15.3966 10.8393 16.44 8.64C16.4821 8.55697 16.5002 8.46384 16.4923 8.37109C16.4843 8.27833 16.4506 8.18964 16.395 8.115C16.3396 8.04006 16.2644 7.9821 16.1778 7.94764C16.0912 7.91318 15.9967 7.90361 15.905 7.92ZM13.395 15H4.81999C4.46945 12.992 3.89937 11.0285 3.11999 9.145C3.4771 9.25013 3.82631 9.38046 4.16499 9.535C4.85129 9.86855 5.49716 10.2796 6.08999 10.76C6.18894 10.8443 6.31686 10.8868 6.44661 10.8784C6.57636 10.87 6.69773 10.8114 6.78499 10.715C7.31171 10.1067 7.7602 9.43477 8.11999 8.715C8.50259 7.92103 8.83654 7.10452 9.11999 6.27C9.40135 7.10529 9.73536 7.92193 10.12 8.715C10.481 9.43287 10.9276 10.1044 11.45 10.715C11.5374 10.8129 11.6598 10.8724 11.7908 10.8808C11.9217 10.8893 12.0507 10.8459 12.15 10.76C12.7407 10.2766 13.3869 9.86539 14.075 9.535C14.413 9.37884 14.7623 9.24847 15.12 9.145C14.3298 11.0267 13.7512 12.9904 13.395 15Z" fill="#CD7F32"/>
<path d="M16.915 7.35997C17.2988 7.35997 17.61 7.04881 17.61 6.66497C17.61 6.28113 17.2988 5.96997 16.915 5.96997C16.5312 5.96997 16.22 6.28113 16.22 6.66497C16.22 7.04881 16.5312 7.35997 16.915 7.35997Z" fill="#CD7F32"/>
<path d="M9.10999 3.19498C9.24766 3.19597 9.38252 3.15605 9.49746 3.08028C9.61241 3.00452 9.70227 2.89633 9.75564 2.76942C9.80901 2.64252 9.82349 2.50262 9.79724 2.36748C9.77099 2.23233 9.7052 2.10803 9.6082 2.01033C9.5112 1.91263 9.38738 1.84594 9.25243 1.81872C9.11748 1.79149 8.97748 1.80496 8.85019 1.85741C8.72291 1.90987 8.61407 1.99894 8.53747 2.11334C8.46088 2.22774 8.41999 2.3623 8.41999 2.49998C8.41998 2.68344 8.49252 2.85946 8.62178 2.98965C8.75104 3.11985 8.92653 3.19366 9.10999 3.19498ZM9.11499 13.17C9.0048 13.169 8.89681 13.2008 8.80478 13.2614C8.71275 13.322 8.64084 13.4087 8.59822 13.5103C8.55559 13.6119 8.54418 13.7239 8.56543 13.832C8.58669 13.9401 8.63965 14.0395 8.71757 14.1174C8.79549 14.1953 8.89483 14.2483 9.00296 14.2695C9.11108 14.2908 9.22308 14.2794 9.3247 14.2368C9.42631 14.1941 9.51294 14.1222 9.57354 14.0302C9.63414 13.9382 9.66598 13.8302 9.66499 13.72C9.66499 13.5741 9.60704 13.4342 9.5039 13.3311C9.40075 13.2279 9.26086 13.17 9.11499 13.17ZM6.28999 13.17C6.1798 13.169 6.07181 13.2008 5.97978 13.2614C5.88775 13.322 5.81584 13.4087 5.77322 13.5103C5.73059 13.6119 5.71918 13.7239 5.74043 13.832C5.76169 13.9401 5.81465 14.0395 5.89257 14.1174C5.97049 14.1953 6.06983 14.2483 6.17796 14.2695C6.28608 14.2908 6.39808 14.2794 6.4997 14.2368C6.60131 14.1941 6.68794 14.1222 6.74854 14.0302C6.80914 13.9382 6.84098 13.8302 6.83999 13.72C6.83999 13.5741 6.78204 13.4342 6.6789 13.3311C6.57575 13.2279 6.43586 13.17 6.28999 13.17ZM11.945 13.17C11.8348 13.169 11.7268 13.2008 11.6348 13.2614C11.5428 13.322 11.4708 13.4087 11.4282 13.5103C11.3856 13.6119 11.3742 13.7239 11.3954 13.832C11.4167 13.9401 11.4697 14.0395 11.5476 14.1174C11.6255 14.1953 11.7248 14.2483 11.833 14.2695C11.9411 14.2908 12.0531 14.2794 12.1547 14.2368C12.2563 14.1941 12.3429 14.1222 12.4035 14.0302C12.4641 13.9382 12.496 13.8302 12.495 13.72C12.495 13.5741 12.437 13.4342 12.3339 13.3311C12.2308 13.2279 12.0909 13.17 11.945 13.17Z" fill="#CD7F32"/>
</svg>
